# xmcd
#
# Track frame offsets:
#	150
#	23801
#	42098
#	62435
#	80561
#	102215
#	128784
#	155445
#	170746
#
# Disc length: 2569 seconds
#
# Revision: 1
# Processed by: cddbd v1.5.2PL0 Copyright (c) Steve Scherf et al.
# Submitted via: EZCDAudioConverter 7.0.6.1
#
DISCID=6a0a0709
DTITLE=Dixie Chicks - DCX MMXVI 
DYEAR=2017
DGENRE=Country
TTITLE0=The Long Way Around
TTITLE1=Lubbock or Leave It
TTITLE2=Truth No. 2
TTITLE3=Easy Silence
TTITLE4=Long Time Gone
TTITLE5=Nothing Compares 2 U
TTITLE6=Top of the World
TTITLE7=Something in the Air
TTITLE8=Goodbye Earl
EXTD=
EXTT0=
EXTT1=
EXTT2=
EXTT3=
EXTT4=
EXTT5=
EXTT6=
EXTT7=
EXTT8=
PLAYORDER=
